<?xml version="1.0" encoding="UTF-8"?>
<svg width="176" height="32" viewBox="0 0 176 32" fill="none" xmlns="http://www.w3.org/2000/svg">
  <defs>
    <style>
      .cls-1 {
        stroke: #000;
        stroke-miterlimit: 10;
      }

      .cls-2, .cls-3 {
        stroke-width: 0px;
      }

      .cls-3 {
        fill: red;
      }
    </style>
  </defs>
  <g>
    <path class="cls-2" d="M215.19,252.77V109.8h38.96v109.57h48.44v33.4h-87.4Z"/>
    <path class="cls-2" d="M388.53,223.57c10.81,0,19.74-3.97,26.81-11.91,7.06-7.94,10.6-17.97,10.6-30.08s-3.58-21.97-10.74-29.98c-7.16-8.01-16.05-12.01-26.66-12.01s-19.74,3.99-26.81,11.96c-7.06,7.98-10.6,17.99-10.6,30.03s3.48,22.3,10.45,30.18c6.97,7.88,15.95,11.82,26.95,11.82Z"/>
    <path class="cls-3" d="M464.89,181.58c0,10.28-1.89,19.92-5.66,28.9-3.78,8.99-9.28,17.03-16.51,24.12-7.29,7.04-15.62,12.46-25,16.26-9.37,3.81-19.11,5.72-29.2,5.72s-20-1.91-29.34-5.72c-9.35-3.8-17.57-9.22-24.66-16.26-7.36-7.09-12.94-15.16-16.75-24.21-3.81-9.05-5.71-18.66-5.71-28.81s1.9-19.84,5.71-28.86c3.81-9.02,9.39-17.07,16.75-24.17,7.09-7.03,15.31-12.45,24.66-16.26,9.34-3.81,19.12-5.71,29.34-5.71s19.94,1.9,29.35,5.71c9.41,3.81,17.69,9.23,24.85,16.26,7.16,7.03,12.65,15.07,16.46,24.12s5.71,18.69,5.71,28.91Z"/>
    <path class="cls-2" d="M489.31,252.77V109.8h40.72c15.95,0,27.07.73,33.35,2.2,6.28,1.46,11.7,3.92,16.26,7.37,5.14,3.91,9.1,8.89,11.87,14.94,2.77,6.05,4.15,12.73,4.15,20.02,0,11.07-2.72,20.07-8.15,27-5.44,6.93-13.36,11.54-23.78,13.82l38.96,57.62h-44.04l-32.81-55.96v55.96h-36.52ZM525.83,177.38h7.23c8.4,0,14.53-1.43,18.41-4.3,3.87-2.86,5.81-7.36,5.81-13.48,0-7.16-1.81-12.26-5.42-15.28s-9.68-4.54-18.21-4.54h-7.81v37.6Z"/>
    <path class="cls-2" d="M617.53,252.77V109.8h87.6v31.35h-49.61v24.8h46.78v30.66h-46.78v24.12h49.61v32.03h-87.6Z"/>
    <path class="cls-2" d="M751.51,252.77v-109.18h-32.03v-33.79h103.03v33.79h-32.03v109.18h-38.96Z"/>
    <path class="cls-2" d="M984.81,181.58c0,10.29-1.89,19.92-5.66,28.91-3.78,8.98-9.28,17.03-16.5,24.12-7.29,7.03-15.62,12.45-25,16.26s-19.11,5.71-29.2,5.71-20-1.9-29.35-5.71c-9.34-3.81-17.56-9.23-24.66-16.26-7.36-7.1-12.94-15.17-16.75-24.22-3.81-9.05-5.71-18.65-5.71-28.81s1.9-19.84,5.71-28.86c3.81-9.02,9.39-17.07,16.75-24.17,7.1-7.03,15.32-12.45,24.66-16.26,9.34-3.81,19.12-5.71,29.35-5.71s19.94,1.9,29.35,5.71c9.41,3.81,17.69,9.23,24.85,16.26,7.16,7.03,12.65,15.07,16.46,24.12,3.81,9.05,5.71,18.69,5.71,28.91ZM908.45,223.57c10.81,0,19.74-3.97,26.81-11.91,7.06-7.94,10.6-17.97,10.6-30.08s-3.58-21.97-10.74-29.98c-7.16-8.01-16.05-12.01-26.66-12.01s-19.74,3.99-26.81,11.96c-7.06,7.98-10.6,17.99-10.6,30.03s3.48,22.3,10.45,30.18c6.97,7.88,15.95,11.82,26.95,11.82Z"/>
  </g>
  <g>
    <path class="cls-1" d="M113.87,342.09v-31.38h-9.45v-2.93h22.03v2.93h-9.47v31.38h-3.12Z"/>
    <path class="cls-1" d="M150.83,342.09v-34.31h3.12v13.92h18.68v-13.92h3.12v34.31h-3.12v-17.72h-18.68v17.72h-3.12Z"/>
    <path class="cls-1" d="M203.48,342.09v-34.31h16.99v2.93h-13.88v10.73h13.88v2.93h-13.88v14.79h13.88v2.93h-16.99Z"/>
    <path class="cls-1" d="M275.65,342.09l15.07-35.67,14.44,35.67h-3.4l-4.38-11.62h-14.02l-4.55,11.62h-3.16ZM284.42,327.79h11.95l-5.86-14.93-6.09,14.93Z"/>
    <path class="cls-1" d="M354.92,314.05c-1.7-1.47-3.45-2.55-5.23-3.26s-3.66-1.05-5.62-1.05c-4.44,0-8.04,1.41-10.82,4.22s-4.16,6.48-4.16,10.99c0,2.27.34,4.3,1.02,6.12s1.71,3.42,3.11,4.83c1.38,1.38,2.95,2.42,4.72,3.14s3.68,1.08,5.71,1.08,3.89-.34,5.77-1.01,3.65-1.66,5.32-2.98v3.66c-1.69,1.03-3.47,1.82-5.36,2.38s-3.75.83-5.59.83c-2.48,0-4.86-.45-7.12-1.34s-4.21-2.14-5.84-3.75c-1.67-1.66-2.94-3.58-3.8-5.77s-1.29-4.59-1.29-7.2.44-4.95,1.32-7.17,2.15-4.13,3.81-5.74c1.61-1.58,3.55-2.81,5.82-3.7s4.64-1.34,7.09-1.34c2.19,0,4.21.3,6.08.9s3.57,1.5,5.1,2.71l-.05,3.45Z"/>
    <path class="cls-1" d="M376.19,342.09l15.07-35.67,14.44,35.67h-3.4l-4.38-11.62h-14.02l-4.55,11.62h-3.16ZM384.95,327.79h11.95l-5.86-14.93-6.09,14.93Z"/>
    <path class="cls-1" d="M428.74,342.09v-34.31h5.34c4.77,0,8.15.23,10.15.7s3.72,1.27,5.16,2.41c1.91,1.52,3.36,3.47,4.36,5.86s1.5,5.12,1.5,8.2-.5,5.82-1.5,8.21-2.44,4.32-4.31,5.75c-1.48,1.14-3.18,1.95-5.09,2.44s-4.98.73-9.21.73h-6.4ZM431.85,339.39h4.38c3.55,0,6.06-.2,7.55-.6s2.74-1.07,3.77-2.03c1.44-1.34,2.52-3.02,3.26-5.02s1.1-4.28,1.1-6.84-.37-4.94-1.11-6.94-1.84-3.64-3.29-4.92c-1.09-.98-2.43-1.68-4.01-2.09s-4.34-.61-8.27-.61h-3.38v29.04Z"/>
    <path class="cls-1" d="M481.38,342.09v-34.31h16.99v2.93h-13.88v10.73h13.88v2.93h-13.88v14.79h13.88v2.93h-16.99Z"/>
    <path class="cls-1" d="M540.87,343.42l-12.05-27.54-2.6,26.2h-3.21l4.66-35.77,13.15,30.54,13.64-30.54,4.41,35.77h-3.21l-2.55-26.2-12.23,27.54Z"/>
    <path class="cls-1" d="M591.9,342.09v-15.8l-11.39-18.52h3.75l9.21,15.73,9.26-15.73h3.56l-11.27,18.52v15.8h-3.12Z"/>
    <path class="cls-1" d="M698.08,325c0,2.42-.46,4.72-1.38,6.9s-2.25,4.12-3.99,5.82c-1.77,1.72-3.76,3.03-5.98,3.93-2.22.9-4.57,1.35-7.04,1.35s-4.81-.45-7.02-1.35c-2.21-.9-4.19-2.21-5.95-3.93-1.75-1.73-3.08-3.68-4-5.85-.92-2.16-1.37-4.46-1.37-6.88s.46-4.77,1.37-6.95c.91-2.18,2.25-4.14,4-5.87,1.72-1.7,3.68-2.99,5.89-3.87s4.57-1.31,7.08-1.31,4.91.44,7.12,1.32c2.21.88,4.18,2.17,5.9,3.86,1.75,1.73,3.08,3.69,4,5.87s1.37,4.5,1.37,6.95ZM679.69,340.21c2.03,0,3.96-.38,5.77-1.12,1.81-.75,3.45-1.84,4.9-3.28,1.42-1.45,2.51-3.11,3.27-4.96s1.14-3.8,1.14-5.85-.38-4.01-1.13-5.85-1.84-3.49-3.28-4.96c-1.42-1.44-3.05-2.53-4.87-3.28-1.82-.75-3.76-1.12-5.81-1.12s-3.95.38-5.75,1.12c-1.8.75-3.42,1.84-4.88,3.28-1.44,1.48-2.53,3.14-3.28,4.96-.75,1.82-1.13,3.77-1.13,5.85s.38,4.01,1.13,5.85c.75,1.84,1.85,3.49,3.28,4.96,1.44,1.45,3.05,2.55,4.83,3.29s3.71,1.11,5.79,1.11Z"/>
    <path class="cls-1" d="M724.17,342.09v-34.31h16.99v2.93h-13.88v10.73h13.36v2.93h-13.36v17.72h-3.12Z"/>
    <path class="cls-1" d="M800.45,342.09v-34.31h16.99v2.93h-13.88v10.73h13.88v2.93h-13.88v14.79h13.88v2.93h-16.99Z"/>
    <path class="cls-1" d="M844.28,342.09v-35.77l24.3,28.71v-27.26h2.91v35.32l-24.28-28.76v27.75h-2.93Z"/>
    <path class="cls-1" d="M927.37,316.4c-1.39-2.16-3.1-3.79-5.13-4.9s-4.32-1.66-6.87-1.66c-4.25,0-7.71,1.44-10.38,4.31s-4.01,6.6-4.01,11.18c0,2.05.36,3.98,1.07,5.79s1.75,3.42,3.11,4.83c1.38,1.39,2.91,2.43,4.62,3.13s3.57,1.04,5.6,1.04c3.84,0,6.97-1.13,9.39-3.4s3.65-5.23,3.71-8.88h-11.84v-2.7h15.26v.38c0,5.47-1.49,9.75-4.48,12.84s-7.09,4.64-12.33,4.64-9.41-1.66-12.63-4.97-4.83-7.66-4.83-13.03c0-2.47.41-4.8,1.22-7s1.98-4.11,3.52-5.73c1.66-1.77,3.53-3.09,5.61-3.96s4.41-1.31,6.97-1.31c3.48,0,6.47.63,8.95,1.89s4.4,3.11,5.74,5.54l-2.27,1.97Z"/>
    <path class="cls-1" d="M957.66,342.09v-34.31h3.12v31.38h11.77v2.93h-14.88Z"/>
    <path class="cls-1" d="M996.68,342.09v-34.31h3.12v34.31h-3.12Z"/>
    <path class="cls-1" d="M1024.93,336.32l2.67-1.43c.5,1.69,1.36,3,2.59,3.93s2.7,1.39,4.42,1.39c2.17,0,3.87-.64,5.09-1.92s1.83-3.05,1.83-5.32c0-1.66-.41-3.03-1.23-4.12s-2.58-2.36-5.29-3.8c-3.45-1.83-5.75-3.44-6.89-4.83s-1.71-3.06-1.71-5.02c0-2.44.82-4.42,2.47-5.95s3.79-2.3,6.41-2.3c1.72,0,3.21.36,4.49,1.09s2.31,1.82,3.11,3.27l-2.41,1.45c-.5-.98-1.21-1.73-2.12-2.25s-2-.77-3.25-.77c-1.69,0-3.03.5-4.03,1.49s-1.5,2.33-1.5,4.02c0,2.41,1.98,4.65,5.95,6.73.72.38,1.27.66,1.64.87,2.92,1.61,4.88,3.13,5.86,4.56s1.48,3.29,1.48,5.57c0,3.08-.9,5.52-2.7,7.32s-4.24,2.71-7.34,2.71c-2.25,0-4.18-.56-5.78-1.68s-2.86-2.79-3.76-5Z"/>
    <path class="cls-1" d="M1070.66,342.09v-34.31h3.12v13.92h18.68v-13.92h3.12v34.31h-3.12v-17.72h-18.68v17.72h-3.12Z"/>
  </g>
</svg>